<?xml version="1.0" encoding="UTF-8"?>
<!DOCTYPE svg PUBLIC "-//W3C//DTD SVG 1.1//EN" "http://www.w3.org/Graphics/SVG/1.1/DTD/svg11.dtd">
<!-- Creator: CorelDRAW -->
<svg xmlns="http://www.w3.org/2000/svg" xml:space="preserve" width="22.6402mm" height="22.6402mm" version="1.1" style="shape-rendering:geometricPrecision; text-rendering:geometricPrecision; image-rendering:optimizeQuality; fill-rule:evenodd; clip-rule:evenodd"
viewBox="0 0 2249.85 2249.85"
 xmlns:xlink="http://www.w3.org/1999/xlink"
 xmlns:xodm="http://www.corel.com/coreldraw/odm/2003">
 <defs>
  <style type="text/css">
   <![CDATA[
    .fil1 {fill:black}
    .fil0 {fill:#D5DBE1}
   ]]>
  </style>
 </defs>
 <g id="Camada_x0020_1">
  <metadata id="CorelCorpID_0Corel-Layer"/>
  <path class="fil0" d="M1134.97 531.34c40.01,0 79.08,3.97 116.87,11.53 -137.31,135.89 -225.41,346.11 -225.41,582.05 0,235.94 88.11,446.16 225.41,582.05 -37.79,7.55 -76.87,11.53 -116.87,11.53 -327.84,0 -593.58,-265.75 -593.58,-593.58 0,-327.84 265.75,-593.58 593.58,-593.58z"/>
  <path class="fil1" d="M1124.92 0c621.29,0 1124.92,503.64 1124.92,1124.92 0,621.29 -503.64,1124.92 -1124.92,1124.92 -621.29,0 -1124.92,-503.64 -1124.92,-1124.92 0,-621.29 503.64,-1124.92 1124.92,-1124.92zm0 556.37c314.01,0 568.56,254.55 568.56,568.56 0,314.01 -254.55,568.56 -568.56,568.56 -314.01,0 -568.56,-254.55 -568.56,-568.56 0,-314.01 254.55,-568.56 568.56,-568.56z"/>
 </g>
</svg>
