<?xml version="1.0" encoding="UTF-8"?>
<!DOCTYPE svg PUBLIC "-//W3C//DTD SVG 1.1//EN" "http://www.w3.org/Graphics/SVG/1.1/DTD/svg11.dtd">
<!-- Creator: CorelDRAW -->
<svg xmlns="http://www.w3.org/2000/svg" xml:space="preserve" width="23.662mm" height="23.662mm" version="1.1" style="shape-rendering:geometricPrecision; text-rendering:geometricPrecision; image-rendering:optimizeQuality; fill-rule:evenodd; clip-rule:evenodd"
viewBox="0 0 469.7 469.7"
 xmlns:xlink="http://www.w3.org/1999/xlink"
 xmlns:xodm="http://www.corel.com/coreldraw/odm/2003">
 <defs>
  <style type="text/css">
   <![CDATA[
    .fil0 {fill:url(#id0)}
   ]]>
  </style>
  <linearGradient id="id0" gradientUnits="userSpaceOnUse" x1="194.07" y1="3.57" x2="275.63" y2="466.13">
   <stop offset="0" style="stop-opacity:1; stop-color:#0DB0FF"/>
   <stop offset="1" style="stop-opacity:1; stop-color:#456CFF"/>
  </linearGradient>
 </defs>
 <g id="Camada_x0020_1">
  <metadata id="CorelCorpID_0Corel-Layer"/>
  <path class="fil0" d="M24.15 24.15c32.2,-32.2 84.9,-32.2 117.1,0l93.6 93.6 93.6 -93.6c32.2,-32.2 84.9,-32.2 117.1,0 32.2,32.2 32.2,84.9 0,117.1l-93.6 93.6 93.6 93.6c32.2,32.2 32.2,84.9 -0,117.1 -32.2,32.2 -84.9,32.2 -117.1,0l-93.6 -93.6 -93.6 93.6c-32.2,32.2 -84.9,32.2 -117.1,-0 -32.2,-32.2 -32.2,-84.9 -0,-117.1l93.6 -93.6 -93.6 -93.6c-32.2,-32.2 -32.2,-84.9 0,-117.1z"/>
 </g>
</svg>
